<svg id="Layer_1" data-name="Layer 1" xmlns="http://www.w3.org/2000/svg" viewBox="0 0 283.77 144"><defs><style>.cls-1{fill:#231f20;}</style></defs><title>Epsilon_Black</title><path class="cls-1" d="M36,36v72H247.76V36H36Zm207.53,67.76H40.24V40.24H243.53Z"/><path class="cls-1" d="M123.79,77.47a2.87,2.87,0,0,1-.7.29l-.07,0a4.64,4.64,0,0,1-1.71.13,7.16,7.16,0,0,1-3.39-1.29h0l-2.06,3.14a8.29,8.29,0,0,0,2.43,1.4,10,10,0,0,0,3.34.54,10.11,10.11,0,0,0,2.73-.36,6.61,6.61,0,0,0,2.27-1.12,5.61,5.61,0,0,0,1.56-1.91,6,6,0,0,0,.57-2.69,4.71,4.71,0,0,0-.63-2.59,5.3,5.3,0,0,0-.9-1,5.67,5.67,0,0,0-.68-.5,8.54,8.54,0,0,0-2-.89c-.73-.2-1.41-.41-2-.62a5.81,5.81,0,0,1-1.58-.76,1.64,1.64,0,0,1-.36-2.17,1.88,1.88,0,0,1,.67-.58l.34-.16a3.5,3.5,0,0,1,.55-.17l.4-.07h.11l.38,0h0a5.29,5.29,0,0,1,1.59.3,5.88,5.88,0,0,1,1.5.76l.09-.09h0l.06-.09,2.05-3.12a8.1,8.1,0,0,0-2.21-1.08,10.18,10.18,0,0,0-3-.45,9.31,9.31,0,0,0-2.64.38,6.69,6.69,0,0,0-2.26,1.14A5.46,5.46,0,0,0,116,68.28a4.38,4.38,0,0,0,.64,2.48A5,5,0,0,0,117.88,72a3.47,3.47,0,0,0,.38.29,9.58,9.58,0,0,0,2.09.91c.75.23,1.44.45,2.09.68a6,6,0,0,1,1.6.82,1.55,1.55,0,0,1,.64,1.32,1.52,1.52,0,0,1-.24.86A2,2,0,0,1,123.79,77.47Z"/><polygon class="cls-1" points="87.52 77.49 78.55 77.49 78.55 73.73 86.58 73.73 86.58 69.96 78.55 69.96 78.55 66.51 87.52 66.51 87.52 62.74 74.47 62.74 74.47 81.26 87.52 81.26 87.52 77.49"/><path class="cls-1" d="M100.23,74h3a12.28,12.28,0,0,0,2.72-.28,5.84,5.84,0,0,0,2.17-.92,4.48,4.48,0,0,0,1.44-1.76,6.25,6.25,0,0,0,.52-2.72,6,6,0,0,0-.56-2.73A4.54,4.54,0,0,0,108,63.91a6,6,0,0,0-2.23-.9,13.21,13.21,0,0,0-2.72-.27H96.15V81.26h4.08Zm0-7.84h2.09c.38,0,.79,0,1.2.06a3.42,3.42,0,0,1,1.14.3,2.21,2.21,0,0,1,.84.67,1.8,1.8,0,0,1,.32,1.13,2.23,2.23,0,0,1-.24,1.09,1.87,1.87,0,0,1-.66.68,2.7,2.7,0,0,1-.91.35,5.29,5.29,0,0,1-1.06.11h-2.72Z"/><rect class="cls-1" x="137.01" y="62.74" width="4.08" height="18.51"/><polygon class="cls-1" points="161.13 77.49 153.58 77.49 153.58 62.74 149.5 62.74 149.5 81.26 161.13 81.26 161.13 77.49"/><path class="cls-1" d="M169.12,79.1a9.21,9.21,0,0,0,3.13,2,11.87,11.87,0,0,0,7.92,0,9.35,9.35,0,0,0,3.14-2A8.85,8.85,0,0,0,185.36,76a11.34,11.34,0,0,0,0-8.06,8.85,8.85,0,0,0-2.05-3.07,9.35,9.35,0,0,0-3.14-2,11.87,11.87,0,0,0-7.92,0,9.21,9.21,0,0,0-3.13,2A8.88,8.88,0,0,0,167.06,68a11.34,11.34,0,0,0,0,8.06A8.88,8.88,0,0,0,169.12,79.1Zm1.8-9.48a5.47,5.47,0,0,1,1.15-1.9,5.31,5.31,0,0,1,1.8-1.24,6.44,6.44,0,0,1,4.68,0,5.31,5.31,0,0,1,1.8,1.24,5.47,5.47,0,0,1,1.15,1.9,7.14,7.14,0,0,1,0,4.77,5.29,5.29,0,0,1-1.15,1.88,5.2,5.2,0,0,1-1.8,1.25,6.44,6.44,0,0,1-4.68,0,5.2,5.2,0,0,1-1.8-1.25,5.29,5.29,0,0,1-1.15-1.88,7.31,7.31,0,0,1,0-4.77Z"/><polygon class="cls-1" points="196.39 68.08 196.44 68.08 204.22 81.26 209.36 81.26 209.36 62.74 205.43 62.74 205.43 75.61 205.38 75.61 197.8 62.74 192.46 62.74 192.46 81.26 196.39 81.26 196.39 68.08"/><path class="cls-1" d="M214.76,57.63A2.32,2.32,0,1,1,212.44,60,2.32,2.32,0,0,1,214.76,57.63Zm0,4.13A1.81,1.81,0,1,0,213,60,1.81,1.81,0,0,0,214.76,61.76Zm-.08-1.67h-.23v.78h-.37V59h.71c.46,0,.73.14.73.55a.48.48,0,0,1-.48.52l.48.79h-.38Zm.1-.27c.24,0,.38-.08.38-.27s-.16-.25-.32-.25h-.4v.52Z"/></svg>